SplineFontDB: 3.2
FontName: ExploreSans
FullName: Explore Sans Bold
FamilyName: Explore Sans
Weight: Bold
Copyright: Copyright (c) 2024, Bastien
UComments: "2024-12-25: Created with FontForge (http://fontforge.org)"
Version: 001.000
ItalicAngle: 0
UnderlinePosition: -102
UnderlineWidth: 51
Ascent: 800
Descent: 224
InvalidEm: 0
LayerCount: 2
Layer: 0 0 "Arri+AOgA-re" 1
Layer: 1 0 "Avant" 0
XUID: [1021 760 1580941675 4706664]
FSType: 0
OS2Version: 0
OS2_WeightWidthSlopeOnly: 0
OS2_UseTypoMetrics: 1
CreationTime: 1735138560
ModificationTime: 1755880719
PfmFamily: 33
TTFWeight: 700
TTFWidth: 5
LineGap: 192
VLineGap: 0
OS2TypoAscent: 800
OS2TypoAOffset: 0
OS2TypoDescent: -224
OS2TypoDOffset: 0
OS2TypoLinegap: 192
OS2WinAscent: 800
OS2WinAOffset: 0
OS2WinDescent: 224
OS2WinDOffset: 0
HheadAscent: 800
HheadAOffset: 0
HheadDescent: 224
HheadDOffset: 0
OS2FamilyClass: 2049
OS2Vendor: 'PfEd'
Lookup: 258 0 0 "ExploreSans-Kerning Latin" { "ExploreSans-Kerning Latin-1" [153,0,4] } ['kern' ('DFLT' <'dflt' > 'latn' <'dflt' > ) ]
MarkAttachClasses: 1
DEI: 91125
KernClass2: 37 35 "ExploreSans-Kerning Latin-1"
 50 A Agrave Aacute Acircumflex Atilde Adieresis Aring
 10 C Ccedilla
 1 D
 1 F
 1 G
 1 J
 1 K
 1 L
 46 O Q Ograve Oacute Ocircumflex Otilde Odieresis
 1 P
 1 R
 1 S
 1 T
 37 U Ugrave Uacute Ucircumflex Udieresis
 1 V
 1 W
 1 X
 8 Y Yacute
 50 a agrave aacute acircumflex atilde adieresis aring
 3 b p
 10 c ccedilla
 40 e ae egrave eacute ecircumflex edieresis
 1 f
 1 g
 46 i igrave iacute icircumflex idieresis dotlessi
 1 j
 1 k
 1 l
 49 ograve oacute ocircumflex otilde odieresis oslash
 1 r
 1 s
 1 t
 1 v
 1 w
 1 x
 18 y yacute ydieresis
 50 A Agrave Aacute Acircumflex Atilde Adieresis Aring
 10 C Ccedilla
 1 D
 1 G
 1 J
 1 K
 1 L
 46 O Q Ograve Oacute Ocircumflex Otilde Odieresis
 1 R
 1 S
 1 T
 1 V
 1 W
 1 X
 8 Y Yacute
 53 a agrave aacute acircumflex atilde adieresis aring ae
 10 c ccedilla
 3 d q
 37 e egrave eacute ecircumflex edieresis
 1 f
 1 g

StartChar: A
Encoding: 65 65 0
Width: 678
VWidth: 1048
Flags: W
HStem: 0 21G<-5 193.053 488.631 683> 153 140<272.392 411.512> 688 20G<215.782 464.395>
AnchorPoint: "AccentCenter" -171.516 3915.3 basechar 0
LayerCount: 2
Fore
SplineSet
340.68819518 528 m 5
 272.392227776 293 l 1
 411.511911856 293 l 1
 345.127731065 528 l 1
 340.68819518 528 l 5
222.200195312 708 m 1
 458.040039062 708 l 1
 683 0 l 1
 494.280273438 0 l 1
 451.059934455 153 l 1
 231.705268472 153 l 1
 187.240234375 0 l 1
 -5 0 l 1
 222.200195312 708 l 1
EndSplineSet
Colour: ff0000
EndChar

StartChar: B
Encoding: 66 66 1
Width: 652
VWidth: 1048
Flags: HW
HStem: 0 160<240 414.236> 297 140<240 392.181> 548 160<240 389.984>
VStem: 48 192<160 297 437 548> 402 192<448.75 536.594> 433 192<176.244 280.579>
LayerCount: 2
Fore
SplineSet
240 548 m 1
 240 437 l 1
 334 437 l 2
 378.362304688 437 402 456 402 494 c 0xf8
 402 528 378.51171875 548 335 548 c 2
 240 548 l 1
240 297 m 1
 240 160 l 1
 346 160 l 2
 402 160 433 179 433 228 c 0xf4
 433 279 402.796875 297 343 297 c 2
 240 297 l 1
48 708 m 1
 367 708 l 2
 490.972878275 708 594 642 594 531 c 0
 594 436 550 390 492 373 c 1
 575 356 625 310 625 196 c 0
 625 56 503 -1.42059028701e-14 387 0 c 2
 48 0 l 1
 48 708 l 1
EndSplineSet
EndChar

StartChar: C
Encoding: 67 67 2
Width: 671
VWidth: 1048
Flags: HW
HStem: -7 156<311.011 484.098> 560 156<317.4 476.181>
VStem: 40 192<237.506 462.292>
LayerCount: 2
Fore
SplineSet
382 716 m 0
 495 716 598 660 658 564 c 1
 535 477 l 1
 506 528 460 560 392 560 c 0
 303 560 232 485 232 353 c 0
 232 218 297 149 395 149 c 0
 450 149 513.951171875 171.241210938 552 235 c 1
 661 132 l 1
 618 72 519 -7 383 -7 c 0
 186 -7 40 132 40 353 c 0
 40 577 185 716 382 716 c 0
EndSplineSet
EndChar

StartChar: D
Encoding: 68 68 3
Width: 663
VWidth: 1048
Flags: W
HStem: 0 160<232 375.02> 548 160<232 370.769>
VStem: 40 192<160 548> 447 192<237.075 472.903>
LayerCount: 2
Fore
SplineSet
40 708 m 1
 304 708 l 2
 517.7109375 708 639 566 639 361 c 0
 639 138 516.6640625 0 300 0 c 2
 40 0 l 1
 40 708 l 1
232 548 m 5
 232 160 l 1
 280 160 l 2
 399 160 447 226 447 361 c 0
 447 489.549804688 394.73828125 548 282 548 c 2
 232 548 l 5
EndSplineSet
EndChar

StartChar: E
Encoding: 69 69 4
Width: 591
VWidth: 1048
Flags: HW
HStem: 0 160<232 560> 288 150<232 488> 548 160<232 546>
AnchorPoint: "AccentCenter" 315 880 basechar 0
LayerCount: 2
Fore
SplineSet
40 708 m 5
 546 708 l 1
 546 548 l 1
 232 548 l 1
 232 438 l 1
 488 438 l 1
 488 288 l 1
 232 288 l 1
 232 160 l 1
 560 160 l 1
 560 0 l 1
 40 0 l 1
 40 708 l 5
EndSplineSet
EndChar

StartChar: F
Encoding: 70 70 5
Width: 601
VWidth: 1048
Flags: HW
HStem: 0 21G<56 248> 275 150<248 475> 543 165<248 553>
VStem: 56 192<0 275 425 543>
LayerCount: 2
Fore
SplineSet
56 708 m 5
 553 708 l 1
 553 543 l 1
 248 543 l 1
 248 425 l 1
 475 425 l 1
 475 275 l 1
 248 275 l 1
 248 0 l 1
 56 0 l 1
 56 708 l 5
EndSplineSet
Colour: ff0000
EndChar

StartChar: G
Encoding: 71 71 6
Width: 690
VWidth: 1048
Flags: HW
HStem: -7 160<312.05 471.371> 271 150<360 472> 552 164<303.077 469.262>
VStem: 30 192<251.654 463.347>
LayerCount: 2
Fore
SplineSet
377 716 m 0
 471 716 582 674 646 560 c 1
 509 477 l 1
 484 519 446 552 382 552 c 0
 283 552 222 488 222 338 c 0
 222 218 287 153 373 153 c 0
 409.331820376 153 443.094434319 158.994815011 472 168.544080414 c 1
 472 271 l 1
 360 271 l 1
 360 421 l 1
 650 421 l 1
 650 42 l 1
 579 11 482 -7 357 -7 c 0
 160 -7 30 134 30 338 c 0
 30 591 180 716 377 716 c 0
EndSplineSet
EndChar

StartChar: H
Encoding: 72 72 7
Width: 684
VWidth: 1048
Flags: HW
HStem: 0 21G<48 240 414 606> 281 170<240 414> 688 20G<48 240 414 606>
VStem: 48 192<0 281 451 708> 414 192<0 708>
LayerCount: 2
Fore
SplineSet
48 708 m 5
 240 708 l 1
 240 451 l 1
 444 451 l 1
 444 708 l 1
 636 708 l 1
 636 0 l 1
 444 0 l 1
 444 281 l 1
 240 281 l 1
 240 0 l 1
 48 0 l 1
 48 708 l 5
EndSplineSet
EndChar

StartChar: I
Encoding: 73 73 8
Width: 272
VWidth: 1048
Flags: W
HStem: 0 21G<40 232> 688 20G<40 232>
VStem: 40 192<0 708>
AnchorPoint: "AccentCenter" 152 880 basechar 0
LayerCount: 2
Fore
SplineSet
40 708 m 5
 232 708 l 5
 232 0 l 5
 40 0 l 5
 40 708 l 5
EndSplineSet
EndChar

StartChar: J
Encoding: 74 74 9
Width: 526
VWidth: 1048
Flags: HW
HStem: -7 159<129.713 258.964> 687 20G<290 482>
VStem: 290 192<184.486 707>
LayerCount: 2
Fore
SplineSet
290 707 m 5
 482 707 l 1
 482 276 l 2
 482 80 364 -7 216 -7 c 0
 115 -7 32 34 -19 112 c 1
 92 218 l 1
 113 180 145 152 198 152 c 0
 260 152 290 190 290 273 c 2
 290 707 l 5
EndSplineSet
EndChar

StartChar: K
Encoding: 75 75 10
Width: 635
VWidth: 1048
Flags: HW
HStem: 0 21G<32 224 410.464 657> 260.644 198.083<176 320> 688 20G<32 224 409.838 655>
VStem: 32 192<0 260.644 458.727 708> 176 48<362 458.727>
LayerCount: 2
Fore
SplineSet
32 708 m 1
 224 708 l 1
 224 458.7265625 l 1
 247.59765625 458.643554688 l 5
 424 708 l 1
 655 708 l 1
 372.801248257 359.506938324 l 1
 657 0 l 1
 424 0 l 1
 247.597594203 260.643554688 l 1
 224 260.643554688 l 1
 224 0 l 1
 32 0 l 1
 32 708 l 1
EndSplineSet
Colour: ff0000
EndChar

StartChar: L
Encoding: 76 76 11
Width: 564
VWidth: 1048
Flags: W
HStem: 0 160<240 536> 688 20G<48 240>
VStem: 48 192<160 708>
LayerCount: 2
Fore
SplineSet
48 708 m 1
 240 708 l 1
 240 160 l 1
 536 160 l 1
 536 0 l 1
 48 0 l 1
 48 708 l 1
EndSplineSet
EndChar

StartChar: M
Encoding: 77 77 12
Width: 792
VWidth: 1048
Flags: HW
HStem: 0 21G<40 232 560 752> 688 20G<40 241.511 550.16 752>
VStem: 40 192<0 359> 560 192<0 359>
LayerCount: 2
Fore
SplineSet
40 708 m 5
 232 708 l 1
 393.21484375 369 l 1
 560 708 l 1
 752 708 l 1
 752 0 l 1
 560 0 l 1
 560 359 l 1
 463.545898438 148 l 1
 329.838867188 148 l 1
 232 359 l 1
 232 0 l 1
 40 0 l 1
 40 708 l 5
EndSplineSet
EndChar

StartChar: N
Encoding: 78 78 13
Width: 709
VWidth: 1048
Flags: HW
HStem: 0 21G<40 232 464.626 477 477 669> 688 20G<40 232 232 245.032 477 669>
VStem: 40 192<0 708> 477 192<0 708>
LayerCount: 2
Fore
SplineSet
40 708 m 5
 232 708 l 1
 477 332 l 1
 477 708 l 1
 669 708 l 1
 669 0 l 1
 477 0 l 1
 232 396 l 1
 232 0 l 1
 40 0 l 1
 40 708 l 5
EndSplineSet
EndChar

StartChar: O
Encoding: 79 79 14
Width: 704
VWidth: 1048
Flags: W
HStem: -7 160<284.972 420.576> 556 160<282.084 419.142>
VStem: 24 192<235.4 480.958> 488 192<231.449 476.56>
AnchorPoint: "AccentCenter" 354 881 basechar 0
LayerCount: 2
Fore
SplineSet
355 716 m 0
 547 716 680 584 680 353 c 0
 680 124 541 -7 349 -7 c 0
 155 -7 24 128 24 355 c 0
 24 583 162 716 355 716 c 0
349.306640625 556 m 0
 291 556 216 518 216 361.278320312 c 0
 216 192 292 153 350.5625 153 c 0
 416 153 488 194 488 354.5 c 0
 488 515 416 556 349.306640625 556 c 0
EndSplineSet
EndChar

StartChar: P
Encoding: 80 80 15
Width: 648
VWidth: 1048
Flags: HW
HStem: 0 21G<40 232> 215.799 159.951<232 404.097> 548 160<232 404.292>
VStem: 40 192<0 215.799 375.75 548> 432 192<403.937 521.019>
LayerCount: 2
Fore
SplineSet
232 548 m 1
 232 375.75 l 1
 320.594726562 375.75 l 2
 390 375.75 432 400 432 464 c 0
 432 524 389.830078125 548 320.764648438 548 c 2
 232 548 l 1
40 708 m 5
 355 708 l 2
 510 708 624 624 624 464 c 0
 624 295 507 215.798828125 336 215.798828125 c 2
 232 215.798828125 l 5
 232 0 l 1
 40 0 l 1
 40 708 l 5
EndSplineSet
Colour: ff0000
EndChar

StartChar: Q
Encoding: 81 81 16
Width: 704
VWidth: 1048
Flags: HW
HStem: -184 150<434.99 602> -7 23<256 422> 556 160<282.084 419.142>
VStem: 24 192<235.4 480.958> 488 192<231.449 476.56>
AnchorPoint: "AccentCenter" 332 880 basechar 0
LayerCount: 2
Fore
SplineSet
355 716 m 0
 547 716 680 584 680 353 c 0
 680 124 541 -7 349 -7 c 0
 155 -7 24 128 24 355 c 0
 24 583 162 716 355 716 c 0
349.306640625 556 m 0
 291 556 216 518 216 361.278320312 c 0
 216 192 292 153 350.5625 153 c 0
 416 153 488 194 488 354.5 c 0
 488 515 416 556 349.306640625 556 c 0
256 16 m 5
 422 16 l 1
 422 16 426 -34 490 -34 c 2
 602 -34 l 1
 616 -178 l 1
 616 -178 534 -184 476 -184 c 0
 322 -184 256 -94 256 16 c 5
EndSplineSet
EndChar

StartChar: R
Encoding: 82 82 17
Width: 650
VWidth: 1048
Flags: HW
HStem: 0 21G<40 232 428.908 648> 215 160<232 395> 215 34<279 471> 548 160<232 397.817>
VStem: 40 192<0 708> 424 192<403.231 519.915>
LayerCount: 2
Fore
SplineSet
232 548 m 5
 232 375 l 1
 338 375 l 2
 395 375 424 420 424 466 c 0
 424 512 390 548 334 548 c 2
 232 548 l 5
232 215 m 1
 232 0 l 1
 40 0 l 1
 40 708 l 1
 344 708 l 2
 513.025921079 708 616 603 616 470 c 0
 616 320 509 215 325 215 c 2
 232 215 l 1
279 249 m 1xbc
 471 255 l 1
 648 0 l 1
 442 0 l 1
 279 249 l 1xbc
EndSplineSet
Colour: ff0000
EndChar

StartChar: S
Encoding: 83 83 18
Width: 638
VWidth: 1048
Flags: W
HStem: -7 151<201.227 397.656> 559 157<241.83 420.591>
VStem: 29 189<448.412 537.531> 421 188<166.915 251.338>
LayerCount: 2
Fore
SplineSet
324 716 m 0
 464 716 553 655 604 578 c 1
 479 484 l 1
 436 541 389 559 326 559 c 0
 258 559 218 535 218 496 c 0
 218 451 245.358663309 435.751249412 308.10546875 430.338867188 c 6
 370 425 l 2
 502.41796875 415.282226562 609 351 609 212 c 0
 609 89 518 -7 294 -7 c 0
 157 -7 50 51 0 136 c 1
 138 230 l 1
 175 169 217 144 301 144 c 0
 379 144 421 169 421 206 c 0
 421 245 402.379882812 268.017578125 315.822265625 274.720703125 c 2
 260 279 l 2
 104 290.419713893 29 393 29 505 c 0
 29 622 122 716 324 716 c 0
EndSplineSet
EndChar

StartChar: T
Encoding: 84 84 19
Width: 654
VWidth: 1048
Flags: HW
HStem: 0 21G<233 425> 548 160<32 233 425 623>
VStem: 233 192<0 548>
LayerCount: 2
Fore
SplineSet
32 708 m 1
 623 708 l 1
 623 548 l 1
 425 548 l 1
 425 0 l 1
 233 0 l 1
 233 548 l 1
 32 548 l 1
 32 708 l 1
EndSplineSet
Colour: ff0000
EndChar

StartChar: U
Encoding: 85 85 20
Width: 684
VWidth: 1048
Flags: W
HStem: -7 160<273.706 411.507> 688 20G<40 232 452 644>
VStem: 40 192<196.719 708> 452 192<202.891 708>
AnchorPoint: "AccentCenter" 367 880 basechar 0
LayerCount: 2
Fore
SplineSet
40 708 m 1
 232 708 l 1
 232 299 l 1
 232 208 261 153 342 153 c 3
 423 153 452 208 452 299 c 1
 452 708 l 1
 644 708 l 1
 644 281 l 1
 644 80 512.143214882 -7 341 -7 c 3
 159 -7 40 80 40 283 c 1
 40 708 l 1
EndSplineSet
EndChar

StartChar: V
Encoding: 86 86 21
Width: 697
VWidth: 1048
Flags: HW
HStem: 0 21G<238.277 457.751> 688 20G<7 206.384 490.559 690>
LayerCount: 2
Fore
SplineSet
7 708 m 1
 200 708 l 1
 347.845814978 244.837004405 l 1
 497 708 l 1
 690 708 l 1
 451 0 l 1
 245 0 l 1
 7 708 l 1
EndSplineSet
Colour: ff0000
EndChar

StartChar: W
Encoding: 87 87 22
Width: 849
VWidth: 1048
Flags: HW
HStem: 0 21G<142.395 355.492 498.621 707.605> 688 20G<-16 163.814 335.96 521.814 686.186 866>
LayerCount: 2
Fore
SplineSet
-16 708 m 5
 160 708 l 5
 247.410071942 249.582733813 l 5
 340 708 l 5
 518 708 l 5
 604 256.977777778 l 5
 690 708 l 5
 866 708 l 5
 703 0 l 5
 503 0 l 5
 427.968152866 342.72611465 l 5
 351 0 l 5
 147 0 l 5
 -16 708 l 5
EndSplineSet
Colour: ff0000
EndChar

StartChar: X
Encoding: 88 88 23
Width: 702
VWidth: 1048
Flags: W
HStem: 0 21G<0 214.131 486.787 702> 688 20G<0 214.181 486.737 702>
LayerCount: 2
Fore
SplineSet
0 708 m 1
 202 708 l 1
 350 465 l 1
 499 708 l 1
 702 708 l 1
 467.33203125 354 l 1
 702 0 l 1
 499 0 l 1
 350 244 l 1
 202 0 l 1
 0 0 l 1
 224.883789062 354 l 1
 0 708 l 1
EndSplineSet
EndChar

StartChar: Y
Encoding: 89 89 24
Width: 639
VWidth: 1048
Flags: HW
HStem: 0 21G<224.25 416.25> 688 20G<0 193.511 445.632 639>
VStem: 224.25 192<0 334>
AnchorPoint: "AccentCenter" 309 880 basechar 0
LayerCount: 2
Fore
SplineSet
0 708 m 1
 184.5 708 l 1
 320.580718341 405.984120009 l 1
 454.5 708 l 1
 639 708 l 1
 416.25 269.747780733 l 1
 416.25 0 l 1
 224.25 0 l 1
 224.25 268.64802394 l 1
 0 708 l 1
EndSplineSet
Colour: ff0000
EndChar

StartChar: Z
Encoding: 90 90 25
Width: 646
VWidth: 1048
Flags: W
HStem: 0 160<278 606> 548 160<40 371>
LayerCount: 2
Fore
SplineSet
40 708 m 1
 606 708 l 1
 606 580 l 1
 278 160 l 1
 606 160 l 1
 606 0 l 1
 40 0 l 1
 40 128 l 1
 371 548 l 5
 40 548 l 1
 40 708 l 1
EndSplineSet
EndChar

StartChar: bracketleft
Encoding: 91 91 26
Width: 382
VWidth: 1048
Flags: W
HStem: -66 104<205 347> 715 104<205 347>
VStem: 77 270<-66 38 715 819>
LayerCount: 2
Fore
SplineSet
205 715 m 1
 205 819 l 1
 347 819 l 1
 347 715 l 1
 205 715 l 1
205 -66 m 5
 205 38 l 1
 347 38 l 1
 347 -66 l 1
 205 -66 l 5
77 819 m 1
 205 819 l 1
 205 -66 l 1
 77 -66 l 1
 77 819 l 1
EndSplineSet
EndChar

StartChar: backslash
Encoding: 92 92 27
Width: 407
VWidth: 1048
Flags: W
HStem: 748 20G<1 141.493>
LayerCount: 2
Fore
SplineSet
474 -35 m 1
 342 -35 l 1
 1 768 l 1
 133 768 l 1
 474 -35 l 1
EndSplineSet
EndChar

StartChar: bracketright
Encoding: 93 93 28
Width: 382
VWidth: 1048
Flags: W
HStem: -66 104<77 220> 715 104<77 220>
VStem: 77 143<-66 38 715 819> 220 128<-66 819>
LayerCount: 2
Fore
SplineSet
220 715 m 5xe0
 77 715 l 5
 77 819 l 1
 220 819 l 1
 220 715 l 5xe0
220 -66 m 1
 77 -66 l 1
 77 38 l 1
 220 38 l 1
 220 -66 l 1
348 819 m 1xd0
 348 -66 l 1xd0
 220 -66 l 1
 220 819 l 1xe0
 348 819 l 1xd0
EndSplineSet
EndChar

StartChar: asciicircum
Encoding: 94 94 29
Width: 489
VWidth: 1048
Flags: W
HStem: 667 185
VStem: 77 327
LayerCount: 2
Fore
SplineSet
77 716 m 25
 208 852 l 1
 273 852 l 25
 404 716 l 25
 364 667 l 25
 241 786 l 25
 118 667 l 25
 77 716 l 25
EndSplineSet
EndChar

StartChar: underscore
Encoding: 95 95 30
Width: 561
VWidth: 1048
Flags: W
HStem: -108 108<95 496>
LayerCount: 2
Fore
SplineSet
95 0 m 1
 496 0 l 1
 496 -108 l 5
 95 -108 l 5
 95 0 l 1
EndSplineSet
EndChar

StartChar: grave
Encoding: 96 96 31
Width: 275
VWidth: 1048
Flags: W
HStem: 527 241
VStem: 32 267
LayerCount: 2
Fore
SplineSet
174 768 m 1
 299 527 l 1
 188 527 l 1
 32 768 l 1
 174 768 l 1
EndSplineSet
EndChar

StartChar: a
Encoding: 97 97 32
Width: 551
Flags: HW
HStem: -7 124<149.38 281.071> 200 120<216.996 331> 400 128<170.589 308.992>
VStem: 24 184<123.446 193.512> 331 184<131.984 200 320 376.247>
AnchorPoint: "AccentCenter" 276 686 basechar 0
AnchorPoint: "Ring" 280 686 basechar 0
LayerCount: 2
Fore
SplineSet
261 200 m 2
 227 200 208 183 208 158 c 0
 208 134 226 117 262 117 c 0
 299 117 321 137 331 164 c 1
 331 200 l 1
 261 200 l 2
270 528 m 0
 401 528 515 466 515 288 c 2
 515 0 l 1
 357 0 l 1
 331 67 l 1
 309 31 272 -7 190 -7 c 0
 86 -7 24 53 24 156 c 0
 24 261 104 320 250 320 c 2
 331 320 l 1
 331 330 l 2
 331 374 296.538085938 400 248 400 c 0
 199 400 168 383 142 351 c 1
 44 438 l 1
 90 500 181 528 270 528 c 0
EndSplineSet
EndChar

StartChar: b
Encoding: 98 98 33
Width: 628
VWidth: 1048
Flags: HW
HStem: -7 150<273.771 373.731> 388 140<273.327 432.906> 696 20G<40 228>
VStem: 40 188<199 330 390 716> 412 192<183.764 348.329>
LayerCount: 2
Fore
SplineSet
40 716 m 1
 228 716 l 1
 228 468.035306934 l 1
 261.937143149 511.199773646 311.46847726 528 375 528 c 0
 490 528 604 444 604 262 c 0
 604 89 491 -7 366 -7 c 0
 297.687856645 -7 246 24 219 62 c 5
 190 0 l 1
 40 0 l 1
 40 716 l 1
228 330 m 1
 228 189.234484391 l 1
 244.712800418 160.847024664 275.866573058 143 320 143 c 0
 368 143 412 182 412 265 c 0
 412 353 366 388 316 388 c 0
 283 388 248 369 228 330 c 1
EndSplineSet
EndChar

StartChar: c
Encoding: 99 99 34
Width: 552
VWidth: 1048
Flags: W
HStem: -7 145<249.967 389.577> 382 146<255.436 388.114>
VStem: 24 188<177.251 339.638>
LayerCount: 2
Fore
SplineSet
24 259 m 0
 24 426 132 528 306 528 c 0
 418 528 498 484.5 552 388 c 4
 425 316 l 0
 399 364 361 382 315 382 c 0
 255 382 212 336 212 254 c 0
 212 176 256 138 315 138 c 0
 361 138 390 154 428 194 c 0
 552 108 l 0
 495 33 422 -7 306 -7 c 0
 132 -7 24 89 24 259 c 0
EndSplineSet
EndChar

StartChar: d
Encoding: 100 100 35
Width: 628
VWidth: 1048
Flags: W
HStem: -7 150<270.269 370.229> 388 140<211.094 370.673> 696 20G<416 604>
VStem: 40 192<183.764 348.329> 416 188<199 330 390 716>
LayerCount: 2
Fore
SplineSet
604 716 m 1
 604 0 l 1
 454 0 l 1
 416 81 l 1
 416 716 l 5
 604 716 l 1
453 390 m 1
 416 330 l 1
 396 369 361 388 328 388 c 0
 278 388 232 353 232 265 c 0
 232 182 276 143 324 143 c 0
 373 143 406 165 421 199 c 1
 458 126 l 1
 449 70 387.041015625 -7 278 -7 c 0
 153 -7 40 89 40 262 c 0
 40 444 154 528 269 528 c 0
 362 528 425 492 453 390 c 1
EndSplineSet
EndChar

StartChar: e
Encoding: 101 101 36
Width: 590
VWidth: 1048
Flags: WO
HStem: -7 132<250.912 411.22> 212 98<216 385> 399 129<243.159 360.489>
VStem: 24 192<162.667 212 310 370.253> 385 180<310 372.264>
AnchorPoint: "AccentCenter" 286 686 basechar 0
LayerCount: 2
Fore
SplineSet
304 528 m 0
 458 528 565 442 565 286 c 1
 565 259 561 229 554 212 c 1
 216 212 l 1
 216 173 247 125 323 125 c 0
 377 125 427 148 454 183 c 1
 550 91 l 1
 519 53 424 -7 300 -7 c 0
 151 -7 24 81 24 261 c 0
 24 436 136 528 304 528 c 0
300 399 m 0
 255 399 216 368 216 310 c 1
 385 310 l 1
 385 315 l 1
 385 371 347 399 300 399 c 0
EndSplineSet
EndChar

StartChar: f
Encoding: 102 102 37
Width: 469
VWidth: 1048
Flags: W
HStem: 0 21G<124 316> 370 150<32 432> 601 131<323.857 430>
VStem: 124 192<0 591.97>
LayerCount: 2
Fore
SplineSet
380 601 m 1
 333 601 316 589 316 534 c 5
 316 0 l 5
 124 0 l 1
 124 534 l 1
 124 654 189 732 328 732 c 1
 391 732 427 727 444 725 c 1
 430 601 l 1
 380 601 l 1
32 520 m 1
 124 520 l 1
 432 520 l 1
 432 370 l 1
 32 370 l 1
 32 520 l 1
EndSplineSet
EndChar

StartChar: g
Encoding: 103 103 38
Width: 599
VWidth: 1048
Flags: W
HStem: -191 127.004<201.028 411.175> 0 140<227.45 419.992> 190 56<150 266> 370 150<471 579> 412 116<202.741 308.626>
VStem: 24 174<-55.3669 -1.09001 311.643 405.713> 319 170<315.136 373.876> 420 169<-52.0448 43.5>
LayerCount: 2
Fore
SplineSet
254 528 m 0xee
 429 528 489 457 489 355 c 0
 489 244 413 190 261 190 c 0
 86 190 24 248 24 353 c 0
 24 462 92 528 254 528 c 0xee
420 140 m 2xe5
 518.978899715 140 589 87 589 0 c 0
 589 -134 482 -191 250 -191 c 0
 95 -191 24 -135 24 -51 c 0
 24 19 52 55 115 87 c 1
 237 140 l 1
 420 140 l 2xe5
266 246 m 1
 295 191 l 1
 219 185 197 177 197 161 c 0
 197 149 214 140 242 140 c 0
 192 64 l 0
 90 64 46 89 46 142 c 0
 46 212 150 246 266 246 c 1
302 520 m 1xf4
 579 520 l 1
 579 370 l 1
 471 370 l 1
 302 520 l 1xf4
218 0 m 1
 206 -7 198 -12 198 -34 c 0
 198 -48 213 -63.99609375 294 -63.99609375 c 0
 411 -63.99609375 420 -42 420 -23 c 1xe5
 420 -7 409 0 394 0 c 2
 218 0 l 1
255 412 m 0xee
 212 412 194 394 194 357 c 0
 194 325 213 305 255 305 c 0
 300 305 319 325 319 355 c 0
 319 392 300 412 255 412 c 0xee
EndSplineSet
Colour: ff0000
EndChar

StartChar: h
Encoding: 104 104 39
Width: 603
VWidth: 1048
Flags: W
HStem: 0 21G<40 232 372 564> 370 158<292.125 442.5> 688 20G<40 232>
VStem: 40 192<0 708> 189 43<368 445> 372 192<0 353.45>
LayerCount: 2
Fore
SplineSet
189 368 m 1xec
 189 445 280 528 385 528 c 0
 500 528 564 449 564 318 c 5
 564 0 l 1
 372 0 l 1
 372 304 l 2
 372 345 348 370 309 370 c 0
 266 370 228 342 224 302 c 1
 189 368 l 1xec
40 708 m 1xf4
 232 708 l 1
 232 0 l 1
 40 0 l 1
 40 708 l 1xf4
EndSplineSet
EndChar

StartChar: i
Encoding: 105 105 40
Width: 314
VWidth: 1048
Flags: W
HStem: 0 21G<84.5 276.5> 374 146<0 84.5> 549.4 193.199<121.616 244.384>
VStem: 84.5 192<0 374 588.267 703.733>
LayerCount: 2
Fore
SplineSet
86.400390625 646 m 4
 86.400390625 699.200195312 129.799804688 742.599609375 183 742.599609375 c 4
 236.200195312 742.599609375 279.599609375 699.200195312 279.599609375 646 c 4
 279.599609375 592.799804688 236.200195312 549.400390625 183 549.400390625 c 4
 129.799804688 549.400390625 86.400390625 592.799804688 86.400390625 646 c 4
276.5 520 m 1
 276.5 0 l 1
 84.5 0 l 1
 84.5 374 l 1
 0 374 l 1
 0 520 l 1
 84.5 520 l 1
 276.5 520 l 1
EndSplineSet
EndChar

StartChar: j
Encoding: 106 106 41
Width: 293
VWidth: 1048
Flags: W
HStem: 500 20G<59.8564 251.829> 554 193.199<93.6161 216.384>
VStem: 58.4004 193.199<-22.8265 520 589.216 711.984>
LayerCount: 2
Fore
SplineSet
58.400390625 650.599609375 m 4
 58.400390625 703.799804688 101.799804688 747.19921875 155 747.19921875 c 4
 208.200195312 747.19921875 251.599609375 703.799804688 251.599609375 650.599609375 c 4
 251.599609375 597.399414062 208.200195312 554 155 554 c 4
 101.799804688 554 58.400390625 597.399414062 58.400390625 650.599609375 c 4
0 -34 m 1
 36 -34 59.8564453125 -20 59.8564453125 16 c 1
 59.8564453125 520 l 1
 251.829101562 520 l 1
 251.829101562 22 l 1
 251.829101562 -123 190 -191 0 -191 c 1
 0 -34 l 1
EndSplineSet
Colour: ff0000
EndChar

StartChar: k
Encoding: 107 107 42
Width: 627
VWidth: 1048
Flags: HW
HStem: 0 21G<64 256 388.218 606> 185 90<238 312> 275 85<238 312> 499 20G<375.705 592>
VStem: 64 192<0 185 360 724> 177 79<185 360>
LayerCount: 2
Fore
SplineSet
312 360 m 1xb4
 312 185 l 1
 177 185 l 1xd4
 177 360 l 1
 312 360 l 1xb4
436 275 m 5xb0
 624 0 l 5
 418 0 l 5
 238 275 l 1xd0
 436 275 l 5xb0
238 275 m 1
 406 519 l 5
 610 519 l 5
 436 275 l 5xb0
 238 275 l 1
64 724 m 1x98
 256 724 l 1
 256 0 l 1
 64 0 l 1
 64 724 l 1x98
EndSplineSet
Colour: ff0000
EndChar

StartChar: l
Encoding: 108 108 43
Width: 302
VWidth: 1048
Flags: W
HStem: -7 160<228.619 314> 1 152<229.391 314> 752 20G<32 224>
VStem: 32 192<157.182 772>
LayerCount: 2
Fore
SplineSet
217 -7 m 1xb0
 110 -7 32 56 32 159 c 1
 32 772 l 1
 224 772 l 1
 224 203 l 1
 224 171 236 153 269 153 c 1
 314 153 l 5xb0
 324 1 l 5x70
 299 -5 254 -7 217 -7 c 1xb0
EndSplineSet
EndChar

StartChar: m
Encoding: 109 109 44
Width: 886
VWidth: 1048
Flags: W
HStem: 0 21G<40 232 347 539 654 846> 377.333 150.667<269.342 411 558.243 715> 500 20G<40 182.382>
VStem: 40 192<0 384> 347 192<0 360> 654 192<0 362.434>
CounterMasks: 1 1c
LayerCount: 2
Fore
SplineSet
456 397 m 1xdc
 493 462 542 528 664 528 c 1
 766 528 846 446 846 316 c 1
 846 0 l 1
 654 0 l 1
 654 307 l 1
 654 352 630 377 593 377 c 1
 561 377 523 358 496 316 c 1
 456 397 l 1xdc
163 384 m 1
 177 446 250 528 366 528 c 1
 456 528 513 452 513 385 c 1
 539 385 l 1
 539 0 l 1
 347 0 l 1
 347 314 l 1
 347 360 320 377.333007812 288 377.333007812 c 1
 238 377.333007812 213 340 198 310 c 1
 163 384 l 1
40 520 m 1xbc
 168 520 l 1
 232 431 l 1
 232 0 l 1
 40 0 l 1
 40 520 l 1xbc
EndSplineSet
EndChar

StartChar: n
Encoding: 110 110 45
Width: 603
VWidth: 1048
Flags: W
HStem: 0 21G<40 232 372 564> 369 158<292.125 429.486>
VStem: 40 192<0 368> 189 43<368 428> 372 192<0 353.426>
AnchorPoint: "AccentCenter" 322 686 basechar 0
LayerCount: 2
Fore
SplineSet
40 520 m 5xe8
 189 520 l 5
 232 428 l 5xd8
 232 0 l 5
 40 0 l 5
 40 520 l 5xe8
189 368 m 5
 189 445 280 527 385 527 c 4
 500 527 564 449 564 318 c 5
 564 0 l 5
 372 0 l 5
 372 304 l 6
 372 345 348 369 309 369 c 4
 266 369 228 342 224 302 c 5
 189 368 l 5
EndSplineSet
EndChar

StartChar: o
Encoding: 111 111 46
Width: 620
VWidth: 1048
Flags: W
HStem: -7 150<242.028 373.949> 378 150<246.686 373.274>
VStem: 25 191.95<170.096 348.535> 404.085 191.915<172.699 344.129>
AnchorPoint: "AccentCenter" 321 686 basechar 0
LayerCount: 2
Fore
SplineSet
216.950195312 254 m 0
 216.950195312 173 245 143 310 143 c 0
 372 143 404.084960938 176 404.084960938 258 c 0
 404.084960938 341 372 378 310 378 c 0
 246 378 216.950195312 343 216.950195312 254 c 0
25 259 m 0
 25 431 136 528 310 528 c 0
 485 528 596 428 596 261 c 0
 596 93 484 -7 310 -7 c 0
 141 -7 25 91 25 259 c 0
EndSplineSet
EndChar

StartChar: p
Encoding: 112 112 47
Width: 628
VWidth: 1048
Flags: W
HStem: -7 140<272.59 432.906> 378 150<273.771 373.731> 500 20G<40 199.383>
VStem: 40 188<-191 130 190 321> 412 192<172.671 337.236>
LayerCount: 2
Fore
SplineSet
40 -191 m 5xb8
 40 520 l 5
 190 520 l 5
 228 439 l 5
 228 -191 l 5
 40 -191 l 5xb8
191 130 m 5
 228 190 l 5
 248 151 283 133 316 133 c 4
 366 133 412 168 412 256 c 4
 412 339 368 378 320 378 c 4
 271 378 238 355 223 321 c 5
 186 394 l 5
 195 450 256.958984375 528 366 528 c 4xd8
 491 528 604 432 604 259 c 4
 604 77 490 -7 375 -7 c 4
 282 -7 219 28 191 130 c 5
EndSplineSet
EndChar

StartChar: q
Encoding: 113 113 48
Width: 618
VWidth: 1048
Flags: W
HStem: -7 140<185.094 344.673> 378 150<244.269 344.229> 500 20G<418.617 578>
VStem: 14 192<172.671 337.236> 390 188<-191 131 191 322>
LayerCount: 2
Fore
SplineSet
578 -191 m 1xb8
 390 -191 l 1
 390 439 l 1
 428 520 l 1
 578 520 l 1
 578 -191 l 1xb8
427 131 m 1
 399 29 336 -7 243 -7 c 0
 128 -7 14 77 14 259 c 0
 14 432 127 528 252 528 c 0
 361.041015625 528 423 451 432 395 c 1
 395 322 l 1
 380 356 347 378 298 378 c 0xd8
 250 378 206 339 206 256 c 0
 206 168 252 133 302 133 c 0
 335 133 370 152 390 191 c 1
 427 131 l 1
EndSplineSet
EndChar

StartChar: r
Encoding: 114 114 49
Width: 397
VWidth: 1048
Flags: W
HStem: 0 21G<40 232> 362 166<268.361 379> 500 20G<40 189.361>
VStem: 40 192<0 297>
LayerCount: 2
Fore
SplineSet
336 528 m 1xd0
 356 528 380 523 392 520 c 1xb0
 379 362 l 1
 339 362 l 1
 280 362 240 323 232 297 c 1
 191 382 l 1
 201 466 248 528 336 528 c 1xd0
40 520 m 1
 181 520 l 1
 232 398 l 1
 232 0 l 1
 40 0 l 1
 40 520 l 1
EndSplineSet
Colour: ff0000
EndChar

StartChar: s
Encoding: 115 115 50
Width: 517
VWidth: 1048
Flags: W
HStem: -7 131<142.35 327.149> 393 135<194.139 361.329>
LayerCount: 2
Fore
SplineSet
266 528 m 1
 356 528 447 495 495 432 c 5
 396 344 l 1
 368 378 315 393 263 393 c 1
 210 393 190 380 190 365 c 1
 190 350 201 339 252 331 c 0
 335 318 l 1
 428 303 498 249 498 154 c 1
 498 46 415 -7 236 -7 c 1
 120 -7 43 30 1 86 c 1
 98 181 l 1
 130 143 182 124 242 124 c 1
 298 124 328 131 328 149 c 1
 328 171 311 177 263 184 c 1
 185 195 l 0
 67 213 21 287 20 367 c 1
 20 455 88 528 266 528 c 1
EndSplineSet
EndChar

StartChar: t
Encoding: 116 116 51
Width: 468
VWidth: 1048
Flags: W
HStem: -7 161<311.961 409> 360 160<10 424>
VStem: 113 192<162.457 614>
LayerCount: 2
Fore
SplineSet
318 -7 m 5
 140 -7 113 103 113 206 c 1
 113 614 l 1
 305 687 l 1
 305 210 l 1
 305 172 320 154 362 154 c 1
 409 154 l 1
 426 0 l 1
 388 -6 363 -7 318 -7 c 5
10 360 m 1
 10 520 l 1
 424 520 l 1
 424 360 l 1
 10 360 l 1
EndSplineSet
EndChar

StartChar: u
Encoding: 117 117 52
Width: 603
VWidth: 1048
Flags: W
HStem: -7 158<173.81 310.875> 500 20G<40 232 371 563>
VStem: 40 192<166.574 520> 371 192<152 520> 371 43<92 152>
AnchorPoint: "AccentCenter" 296 684 basechar 0
LayerCount: 2
Fore
SplineSet
563 0 m 1xf0
 414 0 l 1
 371 92 l 1xe8
 371 520 l 1
 563 520 l 1
 563 0 l 1xf0
414 152 m 1
 414 75 323 -7 218 -7 c 0
 103 -7 40 71 40 202 c 1
 40 520 l 1
 232 520 l 1
 232 216 l 2
 232 175 255 151 294 151 c 0
 337 151 375 178 379 218 c 1
 414 152 l 1
EndSplineSet
EndChar

StartChar: v
Encoding: 118 118 53
Width: 601
VWidth: 1048
Flags: W
HStem: 0 21G<194.385 411.385> 500 20G<11.6154 184 409.462 596>
LayerCount: 2
Fore
SplineSet
246 0 m 1
 416 520 l 1
 596 520 l 1
 404 0 l 1
 246 0 l 1
4 520 m 1
 184 519 l 5
 362 0 l 5
 202 0 l 1
 4 520 l 1
EndSplineSet
Colour: ff0000
EndChar

StartChar: w
Encoding: 119 119 54
Width: 821
VWidth: 1048
Flags: W
HStem: 0 21G<117.923 336.846 478.462 697.308> 500 20G<3.5 175.615 308 513.692 644.077 817.5>
LayerCount: 2
Fore
SplineSet
643.5 0 m 5
 483.5 0 l 5
 352.5 520 l 1
 508.5 520 l 1
 643.5 0 l 5
817.5 520 m 1
 692.5 0 l 5
 533.5 0 l 5
 648.5 520 l 1
 817.5 520 l 1
170.5 0 m 1
 313.5 520 l 1
 470.5 520 l 1
 331.5 0 l 1
 170.5 0 l 1
3.5 520 m 1
 171.5 520 l 1
 278.5 0 l 1
 122.5 0 l 1
 3.5 520 l 1
EndSplineSet
Colour: ff0000
EndChar

StartChar: x
Encoding: 120 120 55
Width: 562
VWidth: 1048
Flags: W
HStem: 0 21G<0.69043 206.496 360.702 560.95> 500 20G<0.69043 206.322 360.408 560.95>
LayerCount: 2
Fore
SplineSet
0.6904296875 520 m 1
 196.098632812 520 l 1
 283 350 l 1
 370.728515625 520 l 1
 560.950195312 520 l 1
 400.408203125 260 l 1
 560.950195312 0 l 1
 370.728515625 0 l 1
 285 171 l 5
 196.098632812 0 l 1
 0.6904296875 0 l 1
 160.650390625 260 l 1
 0.6904296875 520 l 1
EndSplineSet
Colour: ff0000
EndChar

StartChar: y
Encoding: 121 121 56
Width: 600
VWidth: 1048
Flags: W
HStem: 500 20G<4 224.091 381.364 582>
AnchorPoint: "AccentCenter" 274 687 basechar 0
LayerCount: 2
Fore
SplineSet
279 106 m 5
 315 300 l 1
 388 520 l 1
 582 520 l 1
 292 -191 l 1
 112 -191 l 0
 216 59 l 1
 279 106 l 5
4 520 m 1
 218 520 l 1
 285 300 l 1
 313 92 l 1
 216 16 l 1
 4 520 l 1
EndSplineSet
Colour: ff0000
EndChar

StartChar: z
Encoding: 122 122 57
Width: 564
VWidth: 1048
Flags: W
HStem: 0 150<269.872 524> 370 150<40 508>
LayerCount: 2
Fore
SplineSet
292.147460938 370 m 5
 508 370 l 1
 269.872070312 150 l 5
 40 150 l 1
 292.147460938 370 l 5
40 150 m 1
 524 150 l 1
 524 0 l 1
 40 0 l 1
 40 150 l 1
40 520 m 1
 508 520 l 1
 508 370 l 1
 40 370 l 1
 40 520 l 1
EndSplineSet
EndChar

StartChar: braceleft
Encoding: 123 123 58
Width: 357
VWidth: 1048
InSpiro: 1
Flags: W
VStem: 119 128<102.063 274.84 478.696 647.876>
LayerCount: 2
Fore
SplineSet
119 620 m 0
 146 725 l 0
 225 794 l 0
 352 819 l 0
 352 719 l 0
 299 711 l 0
 261 683 l 0
 247 628 l 0
 247 513 l 0
 233 446 l 0
 199 402 l 0
 154 376 l 0
 199 353 l 0
 233 309 l 0
 247 239 l 0
 247 123 l 0
 261 68 l 0
 299 41 l 0
 352 34 l 0
 352 -66 l 0
 225 -44 l 0
 146 22 l 0
 119 131 l 0
 119 250 l 0
 110 286 l 0
 85 313 l 0
 48 323 l 0
 48 427 l 0
 85 435 l 0
 110 459 l 0
 119 498 l 0
 119 620 l 0
  Spiro
    119 620 v
    146 725 o
    225 794 o
    352 819 v
    352 719 v
    299 711 o
    261 683 o
    247 628 ]
    247 513 v
    233 446 o
    199 402 o
    154 376 v
    199 353 o
    233 309 o
    247 239 v
    247 123 v
    261 68 o
    299 41 o
    352 34 v
    352 -66 v
    225 -44 o
    146 22 o
    119 131 ]
    119 250 v
    110 286 o
    85 313 o
    48 323 v
    48 427 v
    85 435 o
    110 459 o
    119 498 v
    0 0 z
  EndSpiro
EndSplineSet
EndChar

StartChar: bar
Encoding: 124 124 59
Width: 227
VWidth: 1048
Flags: W
VStem: 77 128<-66 819>
LayerCount: 2
Fore
SplineSet
77 819 m 1
 205 819 l 1
 205 -66 l 1
 77 -66 l 1
 77 819 l 1
EndSplineSet
EndChar

StartChar: braceright
Encoding: 125 125 60
Width: 342
VWidth: 1048
Flags: W
HStem: -66 104<48 119.325> 326 104<305.414 352> 715 104<48 124.373>
VStem: 153 128<69.7034 306.608 453.529 683.781>
LayerCount: 2
Fore
SplineSet
281 133 m 1
 281 12 198 -66 48 -66 c 1
 48 38 l 1
 107 38 153 62 153 133 c 0
 153 240 l 1
 153 322 200 357 246 377 c 1
 200 391 153 430 153 514 c 1
 153 622 l 1
 153 693 107 715 48 715 c 1
 48 819 l 1
 198 819 281 753 281 622 c 0
 281 582 281 577 281 503 c 17
 281 465 320 430 352 430 c 9
 352 326 l 1
 319 326 281 301 281 255 c 9
 281 133 l 1
EndSplineSet
EndChar

StartChar: asciitilde
Encoding: 126 126 61
Width: 648
VWidth: 1048
Flags: W
HStem: 225 66<378.297 484.61> 321 65<179 294.228>
LayerCount: 2
Fore
SplineSet
77 265 m 5
 77 265 117 386 249 386 c 4
 324 386 368 291 439 291 c 4
 497 291 525 384 525 384 c 5
 585 343 l 29
 585 343 537 225 431 225 c 4
 348 225 302 321 237 321 c 4
 162 321 128 225 128 225 c 5
 77 265 l 5
EndSplineSet
EndChar

StartChar: exclam
Encoding: 33 33 62
Width: 290
VWidth: 1048
Flags: W
HStem: -7 205<82.1674 207.833> 696 20G<52.5654 243.234>
VStem: 43 204<32.1674 158.216>
LayerCount: 2
Fore
SplineSet
145 198 m 4
 201 198 247 151 247 95 c 0
 247 39 201 -7 145 -7 c 0
 89 -7 43 39 43 95 c 0
 43 151 89 198 145 198 c 4
52.5654296875 716 m 1
 243.234375 716 l 1
 216.048828125 244 l 1
 73.7509765625 244 l 1
 52.5654296875 716 l 1
EndSplineSet
EndChar

StartChar: quotedbl
Encoding: 34 34 63
Width: 414
VWidth: 1048
Flags: W
HStem: 520 252<70 154 269 353>
VStem: 70 84<520 632.896> 269 84<520 632.896>
LayerCount: 2
Fore
SplineSet
54 772 m 1
 170 772 l 1
 154 520 l 1
 70 520 l 1
 54 772 l 1
253 772 m 1
 369 772 l 1
 353 520 l 1
 269 520 l 1
 253 772 l 1
EndSplineSet
EndChar

StartChar: numbersign
Encoding: 35 35 64
Width: 676
VWidth: 1048
Flags: W
HStem: 0 21G<40 210.751 298 468.751> 153 160<24 652> 415 160<24 652>
LayerCount: 2
Fore
SplineSet
212 724 m 5
 378 724 l 1
 206 0 l 1
 40 0 l 1
 212 724 l 5
24 313 m 1
 652 313 l 1
 652 153 l 1
 24 153 l 1
 24 313 l 1
470 724 m 1
 636 724 l 1
 464 0 l 1
 298 0 l 1
 470 724 l 1
24 575 m 1
 652 575 l 1
 652 415 l 1
 24 415 l 1
 24 575 l 1
EndSplineSet
EndChar

StartChar: dollar
Encoding: 36 36 65
Width: 638
VWidth: 1048
Flags: HW
HStem: -7 159<202.464 400.819> 555 161<237.434 411.727>
VStem: 29 192<454.687 537.148> 255 112<-139 863> 417 192<167.655 250.49>
LayerCount: 2
Fore
SplineSet
255 863 m 1
 367 863 l 1
 367 -139 l 1
 255 -139 l 1
 255 863 l 1
EndSplineSet
Refer: 18 83 S 1 0 0 1 0 0 2
EndChar

StartChar: percent
Encoding: 37 37 66
Width: 822
VWidth: 1048
Flags: W
HStem: -7 120<586.143 668.248> 241 120<586.297 668.093> 348 120<154.143 236.248> 596 120<154.297 236.093> 688 20G<576.667 713>
VStem: 16 128<477.47 586.702> 246 128<477.47 586.557> 448 128<122.47 231.702> 678 128<122.47 231.557>
LayerCount: 2
Fore
SplineSet
627 241 m 0xc780
 594 241 576 219.638671875 576 177.099609375 c 0
 576 135.8125 593 113 627 113 c 0
 661 113 678 135.8125 678 177.099609375 c 0
 678 218.38671875 660 241 627 241 c 0xc780
627 361 m 0
 760 361 806 263 806 177 c 0
 806 91 760 -7 627 -7 c 0
 497 -7 448 91 448 177 c 0
 448 263 497 361 627 361 c 0
195 596 m 4xb780
 162 596 144 574.638671875 144 532.099609375 c 0
 144 490.8125 161 468 195 468 c 0
 229 468 246 490.8125 246 532.099609375 c 0
 246 573.38671875 228 596 195 596 c 4xb780
195 716 m 0
 328 716 374 618 374 532 c 0
 374 446 328 348 195 348 c 0
 65 348 16 446 16 532 c 0
 16 618 65 716 195 716 c 0
590 708 m 1x8f80
 713 708 l 1
 242 0 l 1
 118 0 l 1
 590 708 l 1x8f80
EndSplineSet
EndChar

StartChar: ampersand
Encoding: 38 38 67
Width: 726
VWidth: 1048
Flags: HW
HStem: -7 140<178.067 389.929> 291 145<289.634 439 611 700> 578 138<299.181 464.175>
VStem: 33 192<160.493 263.992> 79 191<456.052 549.98> 439 172<174.756 291>
LayerCount: 2
Back
Fore
SplineSet
439 291 m 1xf4
 300 291 l 1
 262 282 234 250.951171875 234 213 c 0
 234 163 269 133 326 133 c 1
 369 133 407.8984375 147.522460938 439 185 c 1
 439 291 l 1xf4
362 716 m 1
 476 716 557 687 625 601 c 1
 521 510 l 1
 521 510 475 578 376 578 c 0
 295 578 270 530 270 507 c 0xec
 270 474 291 451 322 436 c 0
 700 436 l 0
 700 291 l 25
 611 291 l 1
 611 126 l 25
 705 -7 l 25
 512 -7 l 1
 455 80 l 17
 418 36 343 -7 252 -7 c 1
 105 -7 33 83 33 185 c 1xf4
 33 282 101 346 173 374 c 1
 117 396 79 455 79 534 c 1xec
 79 652 209 716 362 716 c 1
EndSplineSet
Colour: ff0000
EndChar

StartChar: quotesingle
Encoding: 39 39 68
Width: 153
VWidth: 1048
Flags: W
HStem: 527 241<48 132>
VStem: 48 84<527 634.968>
LayerCount: 2
Fore
SplineSet
148 768 m 5
 132 527 l 5
 48 527 l 5
 32 768 l 5
 148 768 l 5
EndSplineSet
EndChar

StartChar: parenleft
Encoding: 40 40 69
Width: 400
VWidth: 1048
Flags: W
VStem: 19 192<195.804 536.671>
LayerCount: 2
Fore
SplineSet
197 800 m 5
 381 800 l 1
 306 734 211 600 211 371 c 0
 211 141 298 -3 381 -64 c 1
 202 -64 l 1
 90 27 19 176 19 371 c 0
 19 548 92 715 197 800 c 5
EndSplineSet
EndChar

StartChar: parenright
Encoding: 41 41 70
Width: 400
VWidth: 1048
Flags: W
VStem: 189 192<195.804 536.671>
LayerCount: 2
Fore
SplineSet
19 800 m 5
 203 800 l 1
 308 715 381 548 381 371 c 0
 381 176 310 27 198 -64 c 1
 19 -64 l 1
 102 -3 189 141 189 371 c 0
 189 600 94 734 19 800 c 5
EndSplineSet
EndChar

StartChar: asterisk
Encoding: 42 42 71
Width: 533
VWidth: 1048
Flags: W
HStem: 687 20G<89.9683 157.875 368.75 436.349>
VStem: 230 66<657.338 806>
LayerCount: 2
Fore
SplineSet
129 488 m 1
 188 573 l 1
 247 633 l 1
 280 608 l 1
 243 535 l 1
 182 451 l 1
 129 488 l 1
397 488 m 1
 344 451 l 1
 284 535 l 1
 247 608 l 1
 280 633 l 1
 338 573 l 1
 397 488 l 1
96 707 m 1
 195 675 l 1
 269 638 l 1
 257 599 l 1
 175 612 l 1
 77 644 l 1
 96 707 l 1
430 707 m 1
 450 644 l 1
 351 612 l 1
 269 599 l 1
 257 638 l 1
 332 675 l 1
 430 707 l 1
230 806 m 1
 296 806 l 1
 296 702 l 1
 284 621 l 1
 243 621 l 1
 230 702 l 1
 230 806 l 1
EndSplineSet
EndChar

StartChar: plus
Encoding: 43 43 72
Width: 579
VWidth: 1048
Flags: W
HStem: 215 104<77 513>
VStem: 231 128<54 480>
LayerCount: 2
Fore
SplineSet
231 480 m 1
 359 480 l 1
 359 54 l 1
 231 54 l 1
 231 480 l 1
77 319 m 1
 513 319 l 5
 513 215 l 5
 77 215 l 1
 77 319 l 1
EndSplineSet
EndChar

StartChar: comma
Encoding: 44 44 73
Width: 226
VWidth: 1048
Flags: W
HStem: -144 222<94 120>
VStem: 24 184
LayerCount: 2
Fore
SplineSet
208 78 m 1
 120 -144 l 5
 24 -144 l 1
 94 78 l 1
 208 78 l 1
EndSplineSet
EndChar

StartChar: hyphen
Encoding: 45 45 74
Width: 436
VWidth: 1048
Flags: W
HStem: 215 108<77 414>
VStem: 77 337<215 323>
LayerCount: 2
Fore
SplineSet
77 323 m 5
 414 323 l 5
 414 215 l 1
 77 215 l 1
 77 323 l 5
EndSplineSet
EndChar

StartChar: period
Encoding: 46 46 75
Width: 241
VWidth: 1048
Flags: W
HStem: -7 204.4<58.2979 191.702>
VStem: 22.7998 204.4<27.13 162.678>
LayerCount: 2
Fore
SplineSet
22.7998046875 95.2001953125 m 0
 22.7998046875 162 69 197.400390625 125 197.400390625 c 0
 181 197.400390625 227.200195312 162 227.200195312 95.2001953125 c 0
 227.200195312 27 181 -7 125 -7 c 0
 69 -7 22.7998046875 27 22.7998046875 95.2001953125 c 0
EndSplineSet
EndChar

StartChar: slash
Encoding: 47 47 76
Width: 402
VWidth: 1048
Flags: W
HStem: 748 20G<333.507 474>
LayerCount: 2
Fore
SplineSet
1 -35 m 1
 342 768 l 1
 474 768 l 1
 133 -35 l 1
 1 -35 l 1
EndSplineSet
EndChar

StartChar: zero
Encoding: 48 48 77
Width: 595
VWidth: 1048
Flags: W
HStem: -7 160<249.827 346.089> 556 160<250.128 347.057>
VStem: 24 192<190.321 518.754> 380 191<190.968 519.065>
LayerCount: 2
Fore
SplineSet
298 556 m 4
 230 556 216 484.5 216 358 c 0
 216 222 231 153 297 153 c 0
 365 153 380 220 380 361 c 0
 380 484.5 367 556 298 556 c 4
299 716 m 0
 468 716 571 589 571 356 c 0
 571 123 468 -7 298 -7 c 0
 130 -7 24 120 24 355 c 0
 24 589 130 716 299 716 c 0
EndSplineSet
EndChar

StartChar: one
Encoding: 49 49 78
Width: 626
VWidth: 1048
Flags: W
HStem: 0 160<57 583> 688 20G<231.836 432>
VStem: 240 192<0 520>
LayerCount: 2
Fore
SplineSet
57 160 m 1
 583 160 l 1
 583 0 l 1
 57 0 l 1
 57 160 l 1
267.5 708 m 5
 432 708 l 1
 432 0 l 1
 240 0 l 1
 240 520 l 1
 66 419 l 1
 66 595 l 1
 267.5 708 l 5
EndSplineSet
Colour: ff0000
EndChar

StartChar: two
Encoding: 50 50 79
Width: 595
VWidth: 1048
Flags: W
HStem: 0 160<296 552.819> 563 153<218.332 339.917>
VStem: 361 183.819<429.202 541.781>
LayerCount: 2
Fore
SplineSet
28 558 m 5
 87 663 170.017578125 716 296 716 c 0
 423 716 544.819335938 634 544.819335938 496 c 0
 544.819335938 408 477.267578125 341 392 256 c 0
 296 160 l 1
 553.954101562 160 l 1
 552.819335938 0 l 1
 44.294921875 0 l 1
 44.294921875 130 l 1
 282.639648438 366 l 0
 337 420 361 448 361 489 c 0
 361 528 338 563 282 563 c 0
 224 563 197 524 167 478 c 1
 28 558 l 5
EndSplineSet
EndChar

StartChar: three
Encoding: 51 51 80
Width: 595
VWidth: 1048
Flags: W
HStem: -7 160<211.845 358.617> 558 150<85 320>
VStem: 384 192<177.983 281.291>
LayerCount: 2
Fore
SplineSet
85 708 m 1
 551 708 l 0
 551 596 l 0
 393 425 l 1
 474 425 576 374 576 233 c 0
 576 58 444 -7 284 -7 c 0
 135 -7 48 74 6 164 c 1
 150 250 l 1
 174 198 213 153 290 153 c 0
 357 153 384 190 384 230 c 0
 384 280 347 301 288 301 c 2
 243 301 l 1
 203 434 l 1
 320 558 l 1
 85 558 l 1
 85 708 l 1
EndSplineSet
EndChar

StartChar: four
Encoding: 52 52 81
Width: 595
VWidth: 1048
Flags: W
HStem: 0 21G<348 524> 122.91 160.109<219 348 524 595> 688 20G<268.329 477>
VStem: 348 176<0 122.91 283.02 409>
LayerCount: 2
Fore
SplineSet
280 708 m 5
 477 708 l 1
 219 283.01953125 l 1
 348 283.01953125 l 1
 348 409 l 1
 524 474 l 1
 524 283.01953125 l 1
 595 283.01953125 l 1
 595 122.91015625 l 1
 524 122.91015625 l 1
 524 0 l 1
 348 0 l 1
 348 122.91015625 l 1
 32 122.91015625 l 1
 32 283.01953125 l 1
 280 708 l 5
EndSplineSet
EndChar

StartChar: five
Encoding: 53 53 82
Width: 595
VWidth: 1048
Flags: W
HStem: -7 155<199.368 348.272> 323.5 138.5<257.801 414.5> 548 160<216.334 524>
VStem: 41 175.334<340 548> 380 192<177.02 300.239>
LayerCount: 2
Fore
SplineSet
41 708 m 5
 524 708 l 1
 524 548 l 1
 216.334478809 548 l 1
 210 271.5 l 1
 39 271.5 l 1
 41 708 l 5
166 340 m 1
 189 394 242 462 357 462 c 0
 472 462 572 394 572 240 c 0
 572 103 483 -7 284 -7 c 0
 156 -7 72 38 11 130 c 1
 147 227 l 1
 168 184 215 148 270 148 c 0
 335 148 380 173 380 238 c 0
 380 298 344 323.5 292 323.5 c 0
 245 323.5 224 301.5 210 271.5 c 1
 166 340 l 1
EndSplineSet
EndChar

StartChar: six
Encoding: 54 54 83
Width: 595
VWidth: 1048
Flags: W
HStem: -7 160<243.325 354.885> 329 140<272.461 433> 562 154<259.283 402.981>
VStem: 24 192<177.391 495.781> 379 192<179.428 304.454>
LayerCount: 2
Back
SplineSet
310.83203125 391 m 4
 231.83203125 391 181.83203125 333 181.83203125 250 c 4
 181.83203125 154 231.83203125 100 310.83203125 100 c 4
 390.83203125 100 436.83203125 154 436.83203125 246 c 4
 436.83203125 336 390.83203125 391 310.83203125 391 c 4
431.83203125 707 m 5
 194.83203125 426 l 5
 229.83203125 466 280.83203125 495 337.83203125 495 c 4
 465.83203125 495 564.83203125 403 564.83203125 246 c 4
 564.83203125 83 451.83203125 -8 307.83203125 -8 c 4
 146.83203125 -8 53.83203125 92 53.83203125 253 c 4
 53.83203125 341 70.83203125 430 147.83203125 527 c 4
 190.83203125 581 246.83203125 650 292.83203125 707 c 5
 431.83203125 707 l 5
EndSplineSet
Fore
SplineSet
318 716 m 0
 400 716 502 682 558 594 c 1
 445 499 l 1
 410 540 385 562 331 562 c 0
 255 562 213 520 213 385 c 1
 225 429 292 469 361 469 c 0
 505 469 571 368 571 229 c 0
 571 79 454 -7 298 -7 c 0
 133 -7 24 95 24 328 c 0
 24 582 135 716 318 716 c 0
298.258789062 329 m 0
 252 329 216 298 216 243.385742188 c 0
 216 188 247 153 298.754882812 153 c 0
 346 153 379 186 379 244 c 0
 379 300 343 329 298.258789062 329 c 0
EndSplineSet
EndChar

StartChar: seven
Encoding: 55 55 84
Width: 595
VWidth: 1048
Flags: W
HStem: 0 21G<113 326.65> 548 160<32 365>
LayerCount: 2
Fore
SplineSet
32 708 m 1
 555 708 l 1
 555 548 l 1
 318 0 l 1
 113 0 l 1
 365 548 l 1
 32 548 l 1
 32 708 l 1
EndSplineSet
Colour: ff0000
EndChar

StartChar: eight
Encoding: 56 56 85
Width: 595
VWidth: 1048
Flags: HW
HStem: -7 140<238.442 354.619> 297 140<254 337> 338 60<169 424> 576 140<248.717 344.244>
VStem: 24 192<154.201 275.568> 42 192<450.175 561.054> 361 192<451.161 560.784> 379 192<155.142 274.196>
LayerCount: 2
Fore
SplineSet
297 297 m 0xd9
 246 297 216 269 216 219 c 0
 216 163 243 133 299 133 c 0
 344 133 379 163 379 211 c 0
 379 268 346 297 297 297 c 0xd9
298 576 m 0
 256 576 234 549 234 506 c 0
 234 463 254 437 296 437 c 0
 337 437 361 462 361 506 c 0xd6
 361 548 338 576 298 576 c 0
296 398 m 0xb9
 439 398 571 354 571 198 c 0
 571 59 450 -7 296 -7 c 0
 143 -7 24 58 24 198 c 0
 24 354 153 398 296 398 c 0xb9
296 716 m 4
 440 716 553 657 553 524 c 0
 553 388 424 338 296 338 c 0
 169 338 42 387 42 524 c 0xb6
 42 658 152 716 296 716 c 4
EndSplineSet
EndChar

StartChar: nine
Encoding: 57 57 86
Width: 595
VWidth: 1048
Flags: W
HStem: -7 154<178.399 328.041> 252 140<236.771 328.222> 556 160<238.788 357.246>
VStem: 24 192<412.598 534.479> 379 192<204.359 533.359>
LayerCount: 2
Fore
SplineSet
296.245117188 556 m 4
 249 556 216 530 216 472 c 0
 216 416 252 392 296.741210938 392 c 0
 343 392 379 418 379 472.614257812 c 0
 379 528 348 556 296.245117188 556 c 4
297 716 m 0
 462 716 571 614 571 381 c 0
 571 106 452 -7 269 -7 c 1
 187 -7 77 27 21 115 c 1
 134 210 l 1
 169 169 202 147 256 147 c 0
 338 147 382 201 382 336 c 1
 370 292 313 252 244 252 c 0
 85 252 24 341 24 480 c 0
 24 630 141 716 297 716 c 0
EndSplineSet
EndChar

StartChar: colon
Encoding: 58 58 87
Width: 303
VWidth: 1048
Flags: W
HStem: -8 146<117.5 220.5> 381 146<117.5 220.5>
VStem: 96 146<13.5 116.5 402.5 505.5>
LayerCount: 2
Fore
SplineSet
96 454 m 4
 96 494 129 527 169 527 c 4
 209 527 242 494 242 454 c 4
 242 414 209 381 169 381 c 4
 129 381 96 414 96 454 c 4
96 65 m 0
 96 105 129 138 169 138 c 0
 209 138 242 105 242 65 c 0
 242 25 209 -8 169 -8 c 0
 129 -8 96 25 96 65 c 0
EndSplineSet
EndChar

StartChar: semicolon
Encoding: 59 59 88
Width: 269
VWidth: 1048
Flags: W
HStem: 381 146<100.5 203.5>
VStem: 79 146<402.5 505.5>
LayerCount: 2
Fore
SplineSet
79 454 m 4
 79 494 112 527 152 527 c 4
 192 527 225 494 225 454 c 4
 225 414 192 381 152 381 c 4
 112 381 79 414 79 454 c 4
208 78 m 1
 120 -144 l 1
 24 -144 l 1
 94 78 l 1
 208 78 l 1
EndSplineSet
EndChar

StartChar: less
Encoding: 60 60 89
Width: 547
VWidth: 1048
Flags: W
LayerCount: 2
Fore
SplineSet
48 328 m 1
 464 504 l 1
 492 413 l 1
 48 229 l 1
 48 328 l 1
48 328 m 5
 492 144 l 5
 464 53 l 1
 48 229 l 1
 48 328 l 5
EndSplineSet
EndChar

StartChar: equal
Encoding: 61 61 90
Width: 579
VWidth: 1048
Flags: W
HStem: 120 108<77 497> 330 108<77 497>
LayerCount: 2
Fore
SplineSet
77 438 m 1
 497 438 l 1
 497 330 l 1
 77 330 l 1
 77 438 l 1
77 228 m 1
 497 228 l 1
 497 120 l 1
 77 120 l 1
 77 228 l 1
EndSplineSet
EndChar

StartChar: greater
Encoding: 62 62 91
Width: 590
VWidth: 1048
Flags: W
LayerCount: 2
Fore
SplineSet
500 328 m 1
 500 229 l 1
 56 413 l 1
 84 504 l 1
 500 328 l 1
500 328 m 1
 500 229 l 1
 84 53 l 1
 56 144 l 1
 500 328 l 1
EndSplineSet
EndChar

StartChar: question
Encoding: 63 63 92
Width: 566
VWidth: 1048
Flags: HW
HStem: -7 204<191.167 316.833> 577 155<189.12 326.537>
VStem: 149 184<240 334.845> 152 204<32.1674 157.833> 342 188<475.55 560.918>
LayerCount: 2
Fore
SplineSet
254 197 m 0
 310 197 356 151 356 95 c 0
 356 39 310 -7 254 -7 c 0
 198 -7 152 39 152 95 c 0
 152 151 198 197 254 197 c 0
278 732 m 0
 407 732 530 667 530 544 c 0
 530 458 493.9765625 402.98828125 424 368 c 0
 376 344 333 339 333 301 c 2
 333 240 l 1
 163 220 l 1
 155 235 149 269 149 287 c 0
 149 362 179 406 242 436 c 0
 300.880074866 464.038130889 342 474 342 520 c 0
 342 542 323 577 263 577 c 0
 207 577 176 552 153 510 c 1
 24 604 l 1
 91 702 170 732 278 732 c 0
EndSplineSet
EndChar

StartChar: at
Encoding: 64 64 93
Width: 1022
Flags: W
HStem: -120 133<369.772 648.463> 116 134<424.354 522.373> 447 130<435.836 543.504> 687 137<385.34 634.591>
VStem: 24 151<210.784 465.308> 246 160<269.087 416.561> 830 152<267.475 489.52>
LayerCount: 2
Fore
SplineSet
491 447 m 0
 434 447 406 400 406 337 c 0
 406 284 429 250 475 250 c 4
 515 250 545.583212435 290.280207254 551 337 c 2
 559 406 l 1
 548 425 521 447 491 447 c 0
512 824 m 0
 747 824 982 664 982 371 c 0
 982 302 956 209 907 149 c 1
 770 116 l 1
 585 207 l 1
 647 330 l 1
 797 250 l 1
 820 282 830 323 830 359 c 0
 830 572 699 687 504 687 c 0
 302 687 175 520 175 352 c 0
 175 140 294 13 501 13 c 0
 572 13 667 33 735 68 c 1
 735 -75 l 1
 674 -104 566 -120 497 -120 c 0
 207 -120 24 36 24 346 c 0
 24 602 198 824 512 824 c 0
623 569 m 1
 730 569 l 1
 690 245 l 1
 633.479875502 243.884471227 l 1
 599.878644196 164.893554324 533.895151 116 449 116 c 0
 343 116 246 201 246 325 c 0
 246 460 322 577 469 577 c 0
 516.066909082 577 556.540681465 559.104343249 587.958471393 526.831380829 c 1
 623 569 l 1
EndSplineSet
EndChar

StartChar: gravecomb
Encoding: 768 768 95
Width: 0
VWidth: 1048
Flags: W
HStem: 737 193
VStem: -144 280
AnchorPoint: "AccentCenter" 0 840 mark 0
LayerCount: 2
Back
Fore
SplineSet
99 737 m 1
 -144 814 l 5
 -85 930 l 1
 136 816 l 1
 99 737 l 1
EndSplineSet
EndChar

StartChar: acutecomb
Encoding: 769 769 96
Width: 0
VWidth: 1048
Flags: W
HStem: 737 193
VStem: -144 280
AnchorPoint: "AccentCenter" 0 840 mark 0
LayerCount: 2
Back
Fore
SplineSet
-107 737 m 1
 -144 816 l 1
 77 930 l 1
 136 814 l 5
 -107 737 l 1
EndSplineSet
EndChar

StartChar: uni0302
Encoding: 770 770 97
Width: 0
VWidth: 1048
Flags: W
HStem: 729 201
AnchorPoint: "AccentCenter" 0 840 mark 0
LayerCount: 2
Back
Fore
SplineSet
-188 800 m 25
 -33 930 l 1
 33 930 l 1
 188 800 l 17
 131 729 l 5
 0 835 l 25
 -139 729 l 1
 -188 800 l 25
EndSplineSet
EndChar

StartChar: tildecomb
Encoding: 771 771 98
Width: 0
VWidth: 1048
Flags: W
HStem: 752 94<22.3279 109.528> 819 94<-111.508 -22.9507>
AnchorPoint: "AccentCenter" 0 838 mark 0
LayerCount: 2
Back
Fore
SplineSet
-219 780 m 5x40
 -207 853 -164 913 -81 913 c 0x40
 -2 913 22 846 72 846 c 0
 106 846 117 872 121 905 c 1
 219 889 l 1
 202 795 157 752 76 752 c 0x80
 -2 752 -21 819 -70 819 c 4
 -103 819 -119 799 -124 760 c 5
 -219 780 l 5x40
EndSplineSet
EndChar

StartChar: uni030A
Encoding: 778 778 100
Width: 0
VWidth: 1048
Flags: W
HStem: 730 70<-35.3046 35.3046> 880 70<-35.3046 35.3046>
VStem: -110 71<803.541 876.459> 39 71<803.541 876.459>
AnchorPoint: "Ring" 0 840 mark 0
LayerCount: 2
Back
Fore
SplineSet
-39 840 m 0
 -39 816 -22 800 0 800 c 4
 22 800 39 816 39 840 c 0
 39 864 22 880 0 880 c 0
 -22 880 -39 864 -39 840 c 0
-110 840 m 0
 -110 904 -61 950 0 950 c 0
 61 950 110 904 110 840 c 0
 110 776 61 730 0 730 c 0
 -61 730 -110 776 -110 840 c 0
EndSplineSet
EndChar

StartChar: uni0308
Encoding: 776 776 101
Width: 0
VWidth: 1048
Flags: W
HStem: 788 138<-162.908 -63.0921 63.0921 162.908>
VStem: -182 138<807.092 906.908> 44 138<807.092 906.908>
AnchorPoint: "AccentCenter" 0 860 mark 0
LayerCount: 2
Fore
SplineSet
44 857 m 4
 44 895 75 926 113 926 c 4
 151 926 182 895 182 857 c 4
 182 819 151 788 113 788 c 4
 75 788 44 819 44 857 c 4
-182 857 m 0
 -182 895 -151 926 -113 926 c 0
 -75 926 -44 895 -44 857 c 0
 -44 819 -75 788 -113 788 c 0
 -151 788 -182 819 -182 857 c 0
EndSplineSet
EndChar

StartChar: dotlessi
Encoding: 305 305 116
Width: 334
VWidth: 1048
Flags: W
HStem: 0 21G<114 242> 415 104<16 170>
VStem: 114 128<0 415> 114 56<415 519>
AnchorPoint: "AccentCenter" 161 686 basechar 0
LayerCount: 2
Fore
SplineSet
16 519 m 1xd0
 170 519 l 1
 170 415 l 1
 16 415 l 1
 16 519 l 1xd0
114 0 m 1xe0
 114 519 l 1xd0
 242 519 l 1
 242 0 l 1
 114 0 l 1xe0
EndSplineSet
EndChar

StartChar: sterling
Encoding: 163 163 153
Width: 582
Flags: W
HStem: 0 108<59 574> 291 108<24 439> 607 108<271.318 432.961>
VStem: 97 128<404.65 562.633> 168 128<187.801 289.629>
LayerCount: 2
Fore
SplineSet
24 399 m 1xe0
 439 399 l 1
 439 291 l 1
 24 291 l 1
 24 399 l 1xe0
59 108 m 1
 574 108 l 5
 574 0 l 5
 59 0 l 1
 59 108 l 1
97 504 m 1xf0
 97 620 195 715 355 715 c 0
 486 715 554 648 596 578 c 1
 497 515 l 0
 471 570 415 607 352 607 c 1
 281 607 225 569 225 498 c 0xf0
 225 388 296 363 296 257 c 0
 296 175 246 126 208 108 c 1
 59 108 l 1
 59 112 l 1
 59 112 168 156 168 267 c 0xe8
 168 353 97 397 97 504 c 1xf0
EndSplineSet
EndChar

StartChar: AE
Encoding: 198 198 154
Width: 941
VWidth: 1048
Flags: W
HStem: 0 104<602 943> 153 104<235 496> 316 104<535 865> 603 104<602 943>
VStem: 474 22<153 257> 535 67<316 420>
AnchorPoint: "AccentCenter" 617 880 basechar 0
LayerCount: 2
Fore
SplineSet
235 257 m 1
 496 257 l 1
 496 153 l 1
 235 153 l 1
 235 257 l 1
535 420 m 1
 865 420 l 1
 865 316 l 1
 535 316 l 1
 535 420 l 1
602 104 m 1
 943 104 l 1
 943 0 l 1
 602 0 l 1
 602 104 l 1
602 707 m 1
 943 707 l 1
 943 603 l 1
 602 603 l 1
 602 707 l 1
474 707 m 1
 602 707 l 1
 602 0 l 1
 474 0 l 1
 474 707 l 1
390 707 m 1
 474 707 l 1
 480 622 l 1
 170 0 l 1
 40 0 l 1
 390 707 l 1
EndSplineSet
EndChar

StartChar: Euro
Encoding: 8364 8364 155
Width: 651
Flags: W
HStem: -8 104<334.256 532.132> 235 80<38 423> 409 80<32 481> 611 104<347.589 531.848>
VStem: 112 128<263.979 406.427>
LayerCount: 2
Fore
SplineSet
435 715 m 1
 522 715 609 677 662 596 c 1
 598 532 l 1
 569 575 511 611 443 611 c 1
 323 611 240 535 240 353 c 1
 240 167 311 96 431 96 c 1
 499 96 548 117 600 170 c 1
 662 98 l 1
 604 40 518 -8 421 -8 c 1
 224 -8 112 132 112 353 c 1
 112 577 238 715 435 715 c 1
38 315 m 1
 450 315 l 1
 423 235 l 1
 38 235 l 5
 38 315 l 1
32 489 m 1
 509 489 l 1
 481 409 l 1
 32 409 l 1
 32 489 l 1
EndSplineSet
EndChar

StartChar: yen
Encoding: 165 165 156
Width: 608
VWidth: 1048
Flags: W
HStem: 0 21G<287 415> 83 108<105 594> 272 108<105 594> 272 3<287 415> 687 20G<48 200.138 498 650>
VStem: 287 128<0 275>
AnchorPoint: "AccentCenter" 320 880 basechar 0
LayerCount: 2
Fore
SplineSet
105 191 m 1xcc
 594 191 l 1
 594 83 l 1
 105 83 l 1
 105 191 l 1xcc
105 380 m 1xec
 594 380 l 1
 594 272 l 1
 105 272 l 1
 105 380 l 1xec
287 275 m 1xdc
 415 275 l 1
 415 0 l 1
 287 0 l 1
 287 275 l 1xdc
292 275 m 1
 508 707 l 1
 650 707 l 1
 410 263 l 1
 292 275 l 1
48 707 m 1
 190 709 l 1
 410 275 l 1
 292 263 l 1
 48 707 l 1
EndSplineSet
EndChar

StartChar: ae
Encoding: 230 230 157
Width: 912
Flags: W
HStem: -8 100<186.815 318.086 517.247 669.525> 218 90<182.091 344 472 678> 423 104<162.043 313.297 511.394 646.437>
VStem: 42 128<109.314 205.066> 344 128<149 218 308 381> 384 48<142.544 436> 432 40<143.14 218> 678 127<308 386.573>
LayerCount: 2
Fore
SplineSet
580 423 m 5xf9
 511 423 472 381 472 308 c 5
 678 308 l 5
 678 320 l 5
 678 383 643 423 580 423 c 5xf9
600 527 m 4
 715 527 805 440 805 294 c 5
 805 267 801 235 794 218 c 5
 472 218 l 5xf9
 472 144 514 92 590 92 c 4
 655 92 689 120 713 162 c 5
 792 95 l 5
 743 25 676 -8 590 -8 c 4
 446 -8 384 81 384 261 c 4xf5
 384 436 436 527 600 527 c 4
170 162 m 4
 170 125 192 92 246 92 c 4
 295 92 328 112 344 149 c 5
 344 218 l 5
 248 218 l 6
 200 218 170 205 170 162 c 4
415 109 m 5
 392 41 326 -8 220 -8 c 4
 116 -8 42 51 42 154 c 4
 42 259 109 308 238 308 c 6
 344 308 l 5
 344 326 l 6xf9
 344 384 307 423 248 423 c 4
 191 423 162 408 136 376 c 5
 62 438 l 5
 108 500 161 527 244 527 c 4
 372 527 429 456 430 339 c 6
 432 167 l 5xf5
 415 109 l 5
EndSplineSet
EndChar

StartChar: eth
Encoding: 240 240 158
Width: 640
Flags: W
HStem: -7 160<248.393 381.665> 393 135<256.41 348.42> 696 20G<148 564>
VStem: 24 192<185.284 350.049> 424 192<194.123 351.487>
LayerCount: 2
Fore
SplineSet
127 656.294921875 m 5
 564 716 l 1
 564 608.219726562 l 1
 127 541 l 5
 127 656.294921875 l 5
216 269 m 0
 216 194 246 153 312 153 c 0
 375 153 424 191 424 268 c 0
 424 301 421 322 414 351 c 1
 389 377 359 393 319 393 c 0
 259 393 216 346 216 269 c 0
374 716 m 1
 489 642 616 495 616 259 c 1
 616 99 509 -7 309 -7 c 1
 117 -7 24 87 24 274 c 1
 24 412 88 528 265 528 c 1
 313 528 361 506 397 468 c 1
 336 573 233 674 148 716 c 1
 374 716 l 1
EndSplineSet
EndChar

StartChar: thorn
Encoding: 254 254 159
Width: 628
VWidth: 1048
Flags: W
HStem: -7 140<272.59 432.906> 378 150<273.771 373.731> 696 20G<40 228>
VStem: 40 188<-191 130 190 321 394 716> 412 192<172.671 337.236>
LayerCount: 2
Fore
SplineSet
191 130 m 1
 228 190 l 1
 248 151 283 133 316 133 c 0
 366 133 412 168 412 256 c 0
 412 339 368 378 320 378 c 0
 271 378 238 355 223 321 c 1
 186 394 l 1
 195 450 256.958984375 528 366 528 c 0
 491 528 604 432 604 259 c 0
 604 77 490 -7 375 -7 c 0
 282 -7 219 28 191 130 c 1
40 -191 m 1
 40 716 l 1
 228 716 l 1
 228 -191 l 1
 40 -191 l 1
EndSplineSet
EndChar

StartChar: oslash
Encoding: 248 248 160
Width: 620
VWidth: 1048
Flags: W
HStem: -7 150<242.028 373.949> 0 21G<44 183.538> 378 150<246.686 373.274> 500 20G<432.462 572>
VStem: 25 191.95<170.096 348.535> 404.085 191.915<172.699 344.129>
AnchorPoint: "AccentCenter" 293 686 basechar 0
LayerCount: 2
Fore
SplineSet
448 520 m 5x5c
 572 520 l 5
 168 0 l 1
 44 0 l 1
 448 520 l 5x5c
EndSplineSet
Refer: 46 111 N 1 0 0 1 0 0 2
EndChar

StartChar: currency
Encoding: 164 164 161
Width: 634
Flags: W
HStem: -7 21G<82.2985 122 532 571.701> 22 108<257.751 396.249> 389 108<257.751 396.249> 508 20G<82.2985 122 532 571.701>
VStem: 95 108<188.187 330.925> 451 108<188.528 331.267>
LayerCount: 2
Fore
SplineSet
499 179 m 1
 618 60 l 1
 552 -7 l 1
 433 112 l 1
 499 179 l 1
221 112 m 1
 102 -7 l 1
 36 60 l 5
 155 178 l 5
 221 112 l 1
155 342 m 1
 36 461 l 1
 102 528 l 1
 221 409 l 1
 155 342 l 1
432 408 m 1
 552 528 l 1
 618 461 l 1
 498 342 l 1
 432 408 l 1
203 259 m 0
 203 188 258 130 327 130 c 0
 396 130 451 189 451 260 c 0
 451 331 396 389 327 389 c 0
 258 389 203 330 203 259 c 0
95 260 m 0
 95 391 199 497 327 497 c 0
 455 497 559 391 559 260 c 0
 559 129 455 22 327 22 c 0
 199 22 95 129 95 260 c 0
EndSplineSet
EndChar

StartChar: uni0327
Encoding: 807 807 163
Width: 0
Flags: W
HStem: -224 90<-160 -68.4567> -215 81<-160 -110.217> -20 20G<-54 54>
VStem: -54 108<-120.593 0>
LayerCount: 2
Back
Fore
SplineSet
-109 -224 m 1xb0
 -135 -224 -158 -220 -173 -215 c 1x70
 -160 -134 l 1
 -113 -134 l 1
 -76 -134 -54 -110 -54 -73 c 1
 -54 0 l 1
 54 0 l 1
 54 -64 l 1
 54 -166 -7 -224 -109 -224 c 1xb0
EndSplineSet
EndChar

StartChar: Thorn
Encoding: 222 222 164
Width: 602
Flags: W
HStem: 0 21G<64 192> 151 108<192 341.679> 460 108<192 341.021> 687 20G<64 192>
VStem: 64 128<0 151 259 460 568 707> 372 128<290.889 427.598>
LayerCount: 2
Fore
SplineSet
192 568 m 1
 287 568 l 1
 407 568 500 490 500 356 c 0
 500 236 404 151 281 151 c 1
 192 151 l 1
 192 259 l 1
 273 259 l 1
 336 259 372 294 372 357 c 0
 372 423 336 460 279 460 c 1
 192 460 l 1
 192 568 l 1
64 707 m 1
 192 707 l 1
 192 0 l 1
 64 0 l 1
 64 707 l 1
EndSplineSet
EndChar

StartChar: section
Encoding: 167 167 165
Width: 549
Flags: W
HStem: -193 100<159.232 351.127> 668 100<216.916 405.937>
VStem: 20 124<279.594 406.427> 52 124<517.594 630.143> 390 128<-55.7159 67.7618> 422 128<174.305 305.762>
LayerCount: 2
Fore
SplineSet
279 342 m 1049xc0
170 398 m 1
 153 382 144 362 144 337 c 1
 144 283 188 249 261 234 c 1
 300 225 l 0
 430 198 518 130 518 10 c 1
 518 -113 409 -193 244 -193 c 1
 134 -193 38 -141 -12 -56 c 1
 75 10 l 1
 112 -51 169 -93 258 -93 c 1
 350 -93 390 -55 390 10 c 1
 387 72 339 105 254 122 c 1
 216 130 l 0
 100 152 21 217 20 329 c 1xe8
 20 386 43 435 84 470 c 1
 170 398 l 1
404 184 m 1
 416 202 422 223 422 248 c 1
 419 310 371 343 286 360 c 1
 248 368 l 0
 132 390 53 455 52 567 c 1
 52 684 148 768 308 768 c 1
 409 768 492 728 543 651 c 1
 473 590 l 1
 430 647 373 668 310 668 c 1
 224 668 176 632 176 575 c 1
 176 521 220 487 293 472 c 1
 332 463 l 0
 462 436 550 368 550 248 c 1xd4
 550 189 525 144 481 113 c 1
 404 184 l 1
EndSplineSet
EndChar

StartChar: mu
Encoding: 181 181 166
Width: 568
VWidth: 1048
Flags: W
HStem: -8 104<215.445 350.92> 0 108<515 580> 499 20G<56 184 397 525>
VStem: 56 128<-192 519> 169 15<76 140> 169 7<145 221> 397 14<97 129> 515 10<0 108>
AnchorPoint: "AccentCenter" 289 686 basechar 0
LayerCount: 2
Fore
SplineSet
515 108 m 1x63
 580 108 l 1
 580 0 l 1
 515 0 l 1
 515 108 l 1x63
397 307 m 1
 525 307 l 1
 525 0 l 1
 440 0 l 1
 397 97 l 1
 397 307 l 1
169 140 m 1xab
 176 221 l 1xa7
 176 145 200 96 286 96 c 0
 355 96 397 155 397 222 c 1
 397 519 l 1
 525 519 l 1
 525 273 l 1
 411 129 l 1
 411 38 356 -8 283 -8 c 0
 190 -8 169 76 169 140 c 1xab
56 -192 m 1x33
 56 519 l 1
 184 519 l 1
 184 -192 l 1
 56 -192 l 1x33
EndSplineSet
EndChar

StartChar: paragraph
Encoding: 182 182 167
Width: 526
Flags: W
HStem: 0 60<444 511> 648 59<444 511>
VStem: 40 260<455.738 629.145> 228 72<0 372> 372 139<0 60 648 707>
LayerCount: 2
Fore
SplineSet
40 547 m 0xe8
 40 641 111 707 212 707 c 0
 300 707 l 1xd8
 300 544 l 1xe8
 300 372 l 1xd8
 300 372 215 372 212 372 c 0
 108 372 40 441 40 547 c 0xe8
228 372 m 1
 300 372 l 1
 300 0 l 1
 228 0 l 1
 228 372 l 1
444 60 m 1
 511 60 l 1
 511 0 l 1
 444 0 l 1
 444 60 l 1
444 707 m 1
 511 707 l 1
 511 648 l 1
 444 648 l 1
 444 707 l 1
372 707 m 1
 444 707 l 1
 444 0 l 1
 372 0 l 1
 372 707 l 1
EndSplineSet
EndChar

StartChar: exclamdown
Encoding: 161 161 168
Width: 289
VWidth: 1048
Flags: W
HStem: 381 146<85.5 188.5>
VStem: 64 146<-196 179.125 402.5 505.5> 73 128<-147.016 275>
LayerCount: 2
Fore
SplineSet
210 454 m 4xc0
 210 414 177 381 137 381 c 4
 97 381 64 414 64 454 c 4
 64 494 97 527 137 527 c 4
 177 527 210 494 210 454 c 4xc0
209 -196 m 5
 65 -196 l 5
 73 275 l 5
 201 275 l 5xa0
 209 -196 l 5
EndSplineSet
EndChar

StartChar: questiondown
Encoding: 191 191 169
Width: 501
VWidth: 1048
Flags: W
HStem: -213 108<224.419 372.77> 381 146<228.5 331.5>
VStem: 64 128<-75.1523 63.8375> 207 146<402.5 505.5> 233 120<211.448 318.323>
LayerCount: 2
Fore
SplineSet
353 454 m 4xf0
 353 414 320 381 280 381 c 4
 240 381 207 414 207 454 c 4
 207 494 240 527 280 527 c 4
 320 527 353 494 353 454 c 4xf0
504 -93 m 5
 470 -157 404 -213 283 -213 c 5
 154 -213 64 -145 64 -22 c 5
 64 64 101 121 165 166 c 4
 219 204 233 244 233 282 c 5
 233 295 231 304 228 318 c 5
 347 335 l 5
 351 313 353 298 353 280 c 5xe8
 353 205 327 158 270 117 c 4
 217 79 192 48 192 -14 c 5
 192 -75 236 -105 296 -105 c 5
 350 -105 397 -79 416 -31 c 5
 504 -93 l 5
EndSplineSet
EndChar

StartChar: cent
Encoding: 162 162 172
Width: 520
VWidth: 1048
Flags: W
HStem: -8 104<163 352.497> 423 104<164 353.597>
VStem: 30 128<150.322 363.071> 219 112<-94 618>
LayerCount: 2
Fore
SplineSet
219 618 m 5
 331 618 l 5
 331 -94 l 5
 219 -94 l 5
 219 618 l 5
282 423 m 0
 199 423 158 364 158 254 c 0
 158 142 202 96 282 96 c 0
 333 96 365 113 390 171 c 0
 488 118 l 0
 446 30 361 -8 278 -8 c 0
 124 -8 30 89 30 259 c 0
 30 431 129 527 288 527 c 0
 368 527 446 486 484 405 c 1
 394 353 l 1
 370 401 327 423 282 423 c 0
EndSplineSet
EndChar

StartChar: onequarter
Encoding: 188 188 173
Width: 727
VWidth: 1048
Flags: W
HStem: 31 64<497 753> 373 64<43 297>
VStem: 137 80<437 694> 615 76<-64 192>
LayerCount: 2
Fore
SplineSet
577 388 m 1
 661 388 l 1
 497 95 l 5
 415 95 l 5
 577 388 l 1
415 31 m 1
 415 95 l 5
 753 95 l 5
 753 31 l 1
 415 31 l 1
615 -64 m 1
 615 192 l 1
 691 192 l 1
 691 -64 l 1
 615 -64 l 1
473 567 m 1
 539 527 l 1
 329 187 l 1
 265 227 l 1
 473 567 l 1
43 373 m 1
 43 437 l 1
 297 437 l 1
 297 373 l 1
 43 373 l 1
137 694 m 1
 37 640 l 1
 37 713 l 1
 147 772 l 1
 217 772 l 1
 217 437 l 1
 137 437 l 1
 137 694 l 1
EndSplineSet
EndChar

StartChar: onehalf
Encoding: 189 189 174
Width: 727
VWidth: 1048
Flags: W
HStem: -64 64<580 758> 316 66<545.585 659.929> 373 64<40 294>
VStem: 134 80<437 694> 674 80<178.24 300.834>
LayerCount: 2
Fore
SplineSet
630 150 m 1xd8
 662 186 674 212 674 252 c 0
 674 286 651 316 612 316 c 0
 573 316 552 304 532 280 c 1
 494 319 l 1
 510 340 544 382 616 382 c 0
 701 382 754 319 754 250 c 0
 754 206 730 163 698 128 c 0
 697 127 580 1 580 0 c 5
 758 0 l 5
 758 -64 l 1
 498 -64 l 1
 498 4 l 5
 498 5 630 150 630 150 c 1xd8
470 567 m 1
 536 527 l 1
 326 187 l 1
 262 227 l 1
 470 567 l 1
40 373 m 1xb8
 40 437 l 1
 294 437 l 1
 294 373 l 1
 40 373 l 1xb8
134 694 m 1
 34 640 l 1
 34 713 l 1
 144 772 l 1
 214 772 l 1
 214 437 l 1
 134 437 l 1
 134 694 l 1
EndSplineSet
EndChar

StartChar: threequarters
Encoding: 190 190 175
Width: 727
VWidth: 1048
Flags: W
HStem: 31 64<497 753> 361 64<112.004 226.357> 558 57<202 229.877> 708 64<66 200>
VStem: 243 80<441.808 545.22> 613 80<-64 192>
LayerCount: 2
Fore
SplineSet
66 772 m 1
 299 772 l 0
 299 719 l 0
 202 615 l 1
 247 615 323 583 323 489 c 0
 323 412 260 361 171 361 c 0
 103 361 60 397 37 448 c 1
 89 480 l 1
 104 450 127 425 170 425 c 0
 220 425 243 455 243 490 c 0
 243 533 222 558 177 558 c 2
 125 558 l 1
 125 620 l 1
 200 708 l 1
 66 708 l 1
 66 772 l 1
577 388 m 1
 661 388 l 1
 497 95 l 1
 415 95 l 1
 577 388 l 1
415 31 m 1
 415 95 l 1
 753 95 l 1
 753 31 l 1
 415 31 l 1
613 -64 m 1
 613 192 l 1
 693 192 l 1
 693 -64 l 1
 613 -64 l 1
473 567 m 1
 539 527 l 1
 329 187 l 1
 265 227 l 1
 473 567 l 1
EndSplineSet
EndChar
